<svg width="20" height="20" viewBox="0 0 20 20" fill="none" xmlns="http://www.w3.org/2000/svg">
<g clip-path="url(#clip0_39_67)">
<path d="M1.76121 4.33398C1.11634 5.26997 0.626264 6.32094 0.329102 7.45052H4.87791L1.76121 4.33398Z" fill="#29337A"/>
<path d="M7.19949 0.400391C6.04732 0.735934 4.98027 1.27136 4.04065 1.96972L7.19949 5.12856V0.400391Z" fill="#29337A"/>
<path d="M4.27551 18.1974C5.15687 18.8141 6.14154 19.2916 7.19943 19.5996V15.2739L4.27551 18.1974Z" fill="#29337A"/>
<path d="M0.443848 12.9529C0.774493 14.0239 1.28116 15.0175 1.92869 15.9014L4.87722 12.9529H0.443848Z" fill="#29337A"/>
<path d="M1.9262 4.10156C1.8703 4.17799 1.8152 4.25551 1.76119 4.33383L4.8779 7.45036H0.329087C0.255366 7.73093 0.195199 8.01691 0.14563 8.30681H6.13178L1.9262 4.10156Z" fill="white"/>
<path d="M4.04358 18.0322C4.11966 18.0889 4.19786 18.1428 4.27551 18.1972L7.19942 15.2736V19.5993C7.48033 19.6814 7.76563 19.7523 8.05587 19.8093V14.02L4.04358 18.0322Z" fill="white"/>
<path d="M0.22168 12.0962C0.283747 12.3864 0.357003 12.6722 0.443686 12.9526H4.8771L1.92857 15.9012C2.24925 16.3393 2.60485 16.7505 2.99123 17.1307L8.02568 12.0962H0.22168Z" fill="white"/>
<path d="M7.19941 0.400201V5.12837L4.04053 1.9697C3.60504 2.29355 3.19798 2.65307 2.8208 3.04228L8.05569 8.27716V0.190186C7.76562 0.247524 7.48032 0.318584 7.19941 0.400201Z" fill="white"/>
<path d="M7.19945 12.9226L7.16943 12.9528H7.19945V12.9226Z" fill="#D32030"/>
<path d="M8.02588 12.0963H8.05586V12.0662L8.02588 12.0963Z" fill="#D32030"/>
<path d="M11.8742 8.30688H11.8453V8.33593L11.8742 8.30688Z" fill="#D32030"/>
<path d="M7.22898 7.45058L7.19946 7.4209V7.45058H7.22898Z" fill="#D32030"/>
<path d="M8.05591 8.27734V8.3069H8.08546L8.05591 8.27734Z" fill="#D32030"/>
<path d="M12.7015 17.3858V19.6275C13.7732 19.3275 14.7723 18.8546 15.666 18.2385L13.2371 15.8096C13.043 16.4915 12.972 16.8441 12.7015 17.3858Z" fill="#252F6C"/>
<path d="M13.2499 4.57992L15.9015 1.92839C14.9489 1.23078 13.8682 0.69916 12.7015 0.372314V2.67505C13.0134 3.29952 13.0396 3.77402 13.2499 4.57992Z" fill="#252F6C"/>
<path d="M18.0302 15.9594C18.698 15.0611 19.2184 14.0472 19.5565 12.9526H15.0234L18.0302 15.9594Z" fill="#252F6C"/>
<path d="M19.671 7.45044C19.3675 6.297 18.8627 5.22632 18.1975 4.27563L15.0223 7.45044H19.671Z" fill="#252F6C"/>
<path d="M13.8337 12.2657L14.5209 12.9529L17.8102 16.2421C17.8849 16.1487 17.9591 16.0555 18.0305 15.9597L15.0237 12.9529H19.5567C19.6431 12.6726 19.7164 12.3867 19.7783 12.0964H13.898C13.8884 12.2179 13.8453 12.1451 13.8337 12.2657Z" fill="#E7E7E7"/>
<path d="M13.1461 5.08148L16.1274 2.09993C16.0527 2.042 15.9778 1.98437 15.9015 1.92847L13.25 4.58C13.2775 4.68484 13.1206 4.97411 13.1461 5.08148Z" fill="#E7E7E7"/>
<path d="M12.7017 2.49084V0.372194C12.4211 0.293575 12.1355 0.226948 11.8452 0.172607V1.20605C12.1639 1.55151 12.4495 1.98543 12.7017 2.49084Z" fill="#E7E7E7"/>
<path d="M13.7664 8.30682H19.8547C19.8052 8.01691 19.7449 7.73111 19.6712 7.45037H15.0226L18.1977 4.27557C17.8856 3.82966 17.5387 3.4103 17.1597 3.02173L13.5834 6.59773C13.6797 7.2464 13.7228 7.6231 13.7664 8.30682Z" fill="#E7E7E7"/>
<path d="M13.0928 15.6648L15.6663 18.2386C16.0944 17.9439 16.4975 17.6157 16.8736 17.2595L13.4885 13.8743C13.3804 14.5003 13.2522 15.1051 13.0928 15.6648Z" fill="#E7E7E7"/>
<path d="M11.8453 18.6751V19.827C12.1355 19.773 12.421 19.706 12.7018 19.6274V17.3857C12.4495 17.8914 12.1638 18.3301 11.8453 18.6751Z" fill="#E7E7E7"/>
<path d="M13.5833 6.59766L17.1593 3.02166C16.8374 2.69101 16.4922 2.38329 16.1272 2.09985L13.3173 4.91023C13.4422 5.43223 13.4989 6.02972 13.5833 6.59766Z" fill="#D71F28"/>
<path d="M9.50085 0.012329C9.66746 0.00426448 9.83357 0 9.9998 0C9.8326 0 9.6662 0.00426448 9.50085 0.012329Z" fill="#D32030"/>
<path d="M9.99975 19.9999C9.83347 19.9999 9.66737 19.9954 9.5011 19.9873C9.66644 19.9957 9.83255 19.9999 9.99975 19.9999Z" fill="#D32030"/>
<path d="M9.99976 20C10.6307 20 11.2468 19.9389 11.8452 19.8269V18.675C11.3199 19.2444 10.7054 20 9.99976 20Z" fill="#D32030"/>
<path d="M19.8544 8.30664H13.8453C13.9249 9.56082 13.9152 10.8505 13.8165 12.0961H19.7784C19.9227 11.4198 20 10.7191 20 10.0001C20 9.42246 19.9486 8.85752 19.8544 8.30664Z" fill="#D71F28"/>
<path d="M13.8337 12.2656C13.7782 12.8565 13.5846 13.3169 13.4883 13.8743L16.8734 17.2594C17.2083 16.942 17.5214 16.6025 17.81 16.2421L14.5209 12.9526L13.8337 12.2656Z" fill="#D71F28"/>
<path d="M11.8454 1.28036V0.172733C11.2471 0.0610961 10.631 0 9.99988 0C10.7055 0 11.3201 0.711155 11.8454 1.28036Z" fill="#D32030"/>
<path d="M12.7017 17.8181C12.9721 17.2762 13.2041 16.6524 13.3983 15.9706L12.7017 15.2739V17.8181Z" fill="#29337A"/>
<path d="M13.485 4.34491C13.2743 3.539 13.0135 2.80636 12.7017 2.18188V5.12788L13.485 4.34491Z" fill="#29337A"/>
<path d="M14.0279 12.4595C14.0392 12.3389 14.0495 12.2178 14.0593 12.0962H13.6646L14.0279 12.4595Z" fill="white"/>
<path d="M12.7017 5.12793V2.18176C12.4493 1.67636 12.1639 1.24214 11.8452 0.896973V6.38194L13.5652 4.662C13.5393 4.55463 13.5121 4.44946 13.4849 4.34462L12.7017 5.12793Z" fill="white"/>
<path d="M11.8743 8.30682H14.088C14.0446 7.62315 13.9754 6.9505 13.8792 6.302L11.8743 8.30682Z" fill="white"/>
<path d="M11.8453 19.1027C12.164 18.7573 12.4495 18.3233 12.7018 17.8179V15.2738L13.3984 15.9704C13.5582 15.4104 13.6922 14.8121 13.8006 14.186L11.8454 12.231L11.8453 19.1027Z" fill="white"/>
<path d="M11.8453 19.1029V12.2311L13.8004 14.1863C13.8966 13.6287 13.9722 13.0505 14.0276 12.4596L13.6643 12.0962H14.059C14.1577 10.8506 14.1673 9.56088 14.0878 8.30675H11.8741L13.8789 6.30193C13.7944 5.73383 13.6899 5.18434 13.565 4.66218L11.8454 6.38211V0.897146C11.32 0.327774 10.7055 0 9.99983 0C9.83356 0 9.66745 0.00426448 9.50089 0.012329C9.00904 0.0369448 8.52668 0.0974498 8.05582 0.190297V8.27723L2.82081 3.04235C2.49916 3.37426 2.19997 3.72792 1.92615 4.10167L5.27495 7.45047L6.13169 8.30692H0.145584C0.0518071 8.85763 0 9.42256 0 10.0002C0 10.7194 0.0776896 11.4199 0.221669 12.0962H8.02584L2.99134 17.1307C3.32102 17.4546 3.67201 17.7562 4.04357 18.0321L8.05569 14.02V19.8094C8.52652 19.9023 9.0092 19.9627 9.50105 19.9874C9.66733 19.9954 9.83343 20 9.9997 20C10.7055 20 11.32 19.6722 11.8453 19.1029Z" fill="#E51D35"/>
</g>
<defs>
<clipPath id="clip0_39_67">
<rect width="20" height="20" fill="white"/>
</clipPath>
</defs>
</svg>
