<svg width="20" height="20" viewBox="0 0 20 20" fill="none" xmlns="http://www.w3.org/2000/svg">
<g clip-path="url(#clip0_95_19)">
<path d="M10.0004 20C15.523 20 20 15.523 20 10.0004C20 4.47782 15.523 0.000854492 10.0004 0.000854492C4.47782 0.000854492 0.000854492 4.47782 0.000854492 10.0004C0.000854492 15.523 4.47782 20 10.0004 20Z" fill="white"/>
<path d="M19.4285 6.66586H13.2672C13.5346 8.80203 13.5364 11.1558 13.2722 13.2946H19.4416C19.8016 12.2628 19.9998 11.1547 19.9998 10.0001C19.9999 8.8304 19.7973 7.70872 19.4285 6.66586Z" fill="#0B0B0B"/>
<path d="M13.2672 6.66586H19.4284C19.4273 6.66269 19.4263 6.66003 19.4252 6.65716C18.1454 3.04848 14.8535 0.393478 10.8983 0.0410461C12.4287 0.880094 12.8757 3.53843 13.2672 6.66586Z" fill="#338BC1"/>
<path d="M10.8983 19.9585C14.8608 19.6054 18.1575 16.9413 19.4323 13.323C19.4356 13.3133 19.4384 13.3038 19.4419 13.2946H13.2723C12.8841 16.4389 12.4352 19.116 10.8983 19.9585Z" fill="#E4E4E4"/>
<path d="M3.05176e-05 10.0001C3.05176e-05 11.1548 0.198181 12.2627 0.558171 13.2945H13.7871C14.0512 11.1555 14.0495 8.80197 13.782 6.6658H0.571429C0.202572 7.7087 3.05176e-05 8.83039 3.05176e-05 10.0001Z" fill="#151515"/>
<path d="M0.574608 6.65715C0.573511 6.65998 0.572539 6.66268 0.571442 6.66585H13.782C13.3906 3.53842 12.4287 0.88013 10.8981 0.0410826C10.602 0.0148624 10.3026 0 9.99979 0C5.64968 0 1.95018 2.77833 0.574608 6.65715Z" fill="#3D91CF"/>
<path d="M13.7871 13.2946H0.558197C0.561533 13.3039 0.56453 13.3133 0.567824 13.323C1.93803 17.2118 5.64256 19.9998 9.9998 19.9998C10.3027 19.9998 10.602 19.985 10.898 19.9585C12.4352 19.116 13.3988 16.4389 13.7871 13.2946Z" fill="#F3F4F5"/>
</g>
<defs>
<clipPath id="clip0_95_19">
<rect width="20" height="20" fill="white"/>
</clipPath>
</defs>
</svg>
