<svg width="20" height="20" viewBox="0 0 20 20" fill="none" xmlns="http://www.w3.org/2000/svg">
<g clip-path="url(#clip0_95_11)">
<path d="M10.0005 20C15.5231 20 20.0001 15.523 20.0001 10.0004C20.0001 4.47782 15.5231 0.000854492 10.0005 0.000854492C4.47788 0.000854492 0.000915527 4.47782 0.000915527 10.0004C0.000915527 15.523 4.47788 20 10.0005 20Z" fill="white"/>
<path d="M19.4284 6.6658H13.2671C13.5347 8.80197 13.5363 11.1557 13.2723 13.2945H19.4416C19.8017 12.2627 19.9997 11.1546 19.9997 10.0001C19.9999 8.83039 19.7973 7.7087 19.4284 6.6658Z" fill="#2B479D"/>
<path d="M13.2671 6.66581H19.4283C19.4274 6.66265 19.4264 6.65999 19.4251 6.65712C18.1454 3.04848 14.8533 0.393478 10.8979 0.0410461C12.4287 0.880094 12.8758 3.53843 13.2671 6.66581Z" fill="#EFECEC"/>
<path d="M10.8982 19.9585C14.8607 19.6054 18.1574 16.9413 19.4322 13.323C19.4356 13.3133 19.4384 13.3038 19.4419 13.2946H13.2725C12.8842 16.4389 12.4351 19.116 10.8982 19.9585Z" fill="#E63026"/>
<path d="M0 10C0 11.1548 0.19832 12.2627 0.558141 13.2945H13.787C14.0513 11.1555 14.0494 8.80194 13.7821 6.66577H0.571441C0.202584 7.70871 0 8.8304 0 10Z" fill="#3757A6"/>
<path d="M0.574578 6.65714C0.573649 6.65997 0.572678 6.66267 0.571411 6.66584H13.7821C13.3906 3.53841 12.4287 0.880118 10.898 0.0410709C10.602 0.0148506 10.3026 3.05181e-05 9.9998 3.05181e-05C5.64965 -1.17045e-05 1.95032 2.77828 0.574578 6.65714Z" fill="#EFEFEF"/>
<path d="M13.787 13.2945H0.558136C0.561472 13.3038 0.564596 13.3133 0.567763 13.3229C1.93801 17.2117 5.64267 19.9998 9.99978 19.9998C10.3026 19.9998 10.602 19.985 10.898 19.9584C12.4351 19.1159 13.3987 16.4389 13.787 13.2945Z" fill="#E73B36"/>
</g>
<defs>
<clipPath id="clip0_95_11">
<rect width="20" height="20" fill="white"/>
</clipPath>
</defs>
</svg>
